<svg xmlns="http://www.w3.org/2000/svg" viewBox="0 0 24 24" fill="none">
  <path d="M9 5.25C9 6.2165 8.2165 7 7.25 7C6.2835 7 5.5 6.2165 5.5 5.25C5.5 4.2835 6.2835 3.5 7.25 3.5C8.2165 3.5 9 4.2835 9 5.25Z" fill="currentColor"/>
  <path d="M18.5 5H11.5" stroke="currentColor" stroke-width="1.8" stroke-linecap="round"/>
  <path d="M9 12C9 12.9665 8.2165 13.75 7.25 13.75C6.2835 13.75 5.5 12.9665 5.5 12C5.5 11.0335 6.2835 10.25 7.25 10.25C8.2165 10.25 9 11.0335 9 12Z" fill="currentColor"/>
  <path d="M18.5 12H11.5" stroke="currentColor" stroke-width="1.8" stroke-linecap="round"/>
  <path d="M9 18.75C9 19.7165 8.2165 20.5 7.25 20.5C6.2835 20.5 5.5 19.7165 5.5 18.75C5.5 17.7835 6.2835 17 7.25 17C8.2165 17 9 17.7835 9 18.75Z" fill="currentColor"/>
  <path d="M18.5 18.5H11.5" stroke="currentColor" stroke-width="1.8" stroke-linecap="round"/>
</svg>
