<svg xmlns="http://www.w3.org/2000/svg" viewBox="0 0 256 256" width="256" height="256">
    <defs>
        <linearGradient id="bg-grad" x1="0%" y1="0%" x2="100%" y2="100%">
            <stop offset="0%" stop-color="#1e293b"/>
            <stop offset="50%" stop-color="#0f172a"/>
            <stop offset="100%" stop-color="#020617"/>
        </linearGradient>
        <linearGradient id="cyan-grad" x1="0%" y1="0%" x2="100%" y2="100%">
            <stop offset="0%" stop-color="#22d3ee"/>
            <stop offset="100%" stop-color="#0284c7"/>
        </linearGradient>
        <linearGradient id="green-grad" x1="0%" y1="0%" x2="100%" y2="100%">
            <stop offset="0%" stop-color="#4ade80"/>
            <stop offset="100%" stop-color="#10b981"/>
        </linearGradient>
        <filter id="blur" x="-20%" y="-20%" width="140%" height="140%">
            <feGaussianBlur stdDeviation="4" />
        </filter>
        <filter id="shadow-blur" x="-20%" y="-20%" width="140%" height="140%">
            <feGaussianBlur stdDeviation="8" />
        </filter>
        <pattern id="grid" width="16" height="16" patternUnits="userSpaceOnUse">
            <path d="M 16 0 L 0 0 0 16" fill="none" stroke="#1e293b" stroke-width="1" opacity="0.5"/>
        </pattern>
    </defs>

    <rect width="256" height="256" rx="56" fill="url(#bg-grad)"/>
    <rect x="1" y="1" width="254" height="254" rx="55" fill="none" stroke="#334155" stroke-width="2"/>
    <path d="M 0 56 C 0 25.072 25.072 0 56 0 L 200 0 C 230.928 0 256 25.072 256 56 L 256 100 L 0 60 Z" fill="#ffffff" opacity="0.03"/>
    <rect x="24" y="48" width="208" height="176" rx="16" fill="#000000" opacity="0.5" filter="url(#shadow-blur)"/>
    <rect x="24" y="40" width="208" height="176" rx="16" fill="#0f172a" stroke="#334155" stroke-width="2"/>
    <rect x="26" y="72" width="204" height="142" fill="url(#grid)" rx="14"/>
    <text x="128" y="168" font-family="Arial, Helvetica, sans-serif" font-size="88" font-weight="900" fill="#1e293b" text-anchor="middle" opacity="0.4" letter-spacing="4">SQL</text>
    <path d="M 26 56 Q 26 42 40 42 L 216 42 Q 230 42 230 56 L 230 72 L 26 72 Z" fill="#1e293b"/>
    <circle cx="44" cy="57" r="5" fill="#ef4444"/>
    <circle cx="60" cy="57" r="5" fill="#eab308"/>
    <circle cx="76" cy="57" r="5" fill="#22c55e"/>
    <g transform="translate(52, 96)" stroke="url(#cyan-grad)" stroke-width="16" fill="none" stroke-linecap="round" stroke-linejoin="round" opacity="0.2" filter="url(#blur)">
        <path d="M 0 24 L 0 80 C 0 87.7 16 94 36 94 C 56 94 72 87.7 72 80 L 72 24" />
        <path d="M 0 52 C 0 59.7 16 66 36 66 C 56 66 72 59.7 72 52" />
        <ellipse cx="36" cy="24" rx="36" ry="14" />
    </g>
    <g transform="translate(52, 96)" stroke="url(#cyan-grad)" stroke-width="8" fill="none" stroke-linecap="round" stroke-linejoin="round">
        <path d="M 0 24 L 0 80 C 0 87.7 16 94 36 94 C 56 94 72 87.7 72 80 L 72 24" fill="#06b6d4" fill-opacity="0.15"/>
        <path d="M 0 52 C 0 59.7 16 66 36 66 C 56 66 72 59.7 72 52" />
        <ellipse cx="36" cy="24" rx="36" ry="14" fill="#06b6d4" fill-opacity="0.25"/>
    </g>
    <circle cx="132" cy="144" r="2.5" fill="#38bdf8" opacity="0.8"/>
    <circle cx="142" cy="144" r="2.5" fill="#38bdf8" opacity="0.8"/>
    <g transform="translate(152, 128)" stroke="url(#green-grad)" stroke-width="16" stroke-linecap="round" stroke-linejoin="round" fill="none" opacity="0.2" filter="url(#blur)">
        <polyline points="0,0 16,16 0,32" />
        <line x1="28" y1="32" x2="52" y2="32" />
    </g>
    <g transform="translate(152, 128)" stroke="url(#green-grad)" stroke-width="8" stroke-linecap="round" stroke-linejoin="round" fill="none">
        <polyline points="0,0 16,16 0,32" />
        <line x1="28" y1="32" x2="52" y2="32" />
    </g>
</svg>
